<svg xmlns="http://www.w3.org/2000/svg" width="183.141" height="498.617" viewBox="0 0 183.141 498.617">
  <g id="Group_15" data-name="Group 15" transform="translate(874.56 -80.85) rotate(90)">
    <g id="Group_13" data-name="Group 13">
      <path id="Path_42" data-name="Path 42" d="M179.129,760.1h-17.32V691.419h17.32Z" fill="#ef4122"/>
      <path id="Path_43" data-name="Path 43" d="M357.563,704.308H332.791V760.1H315.37V704.308H290.5V691.419h67.067Z" fill="#ef4122"/>
      <path id="Path_44" data-name="Path 44" d="M456.649,760.1h-17.22V732.3H405.392V760.1h-17.32V691.419h17.32v27.592h34.037V691.419h17.22Z" fill="#ef4122"/>
      <path id="Path_45" data-name="Path 45" d="M98.17,718.91v-14.5h30.009v-12.99H80.85V760.1H98.17V718.91Z" fill="#ef4122"/>
      <path id="Path_46" data-name="Path 46" d="M231.894,718.91v-14.5H261.9v-12.99H214.573V760.1h17.321V718.91Z" fill="#ef4122"/>
    </g>
    <g id="Group_14" data-name="Group 14">
      <path id="Path_47" data-name="Path 47" d="M234.9,818.6H210.45v55.062H193.256V818.6H168.707V805.882H234.9Z" fill="#ef4122"/>
      <path id="Path_48" data-name="Path 48" d="M369.465,873.666H352.371V805.882h17.094Z" fill="#ef4122"/>
      <path id="Path_49" data-name="Path 49" d="M471.933,842.755c0,5.368-.1,13.816-5.865,20.873-6.957,8.348-18.089,10.932-28.524,10.932-5.269,0-19.381-.2-28.526-12.026-2.683-3.578-5.167-8.349-5.167-19.281V805.882h17.094v33.594a34.886,34.886,0,0,0,1.193,10.535c2.186,7.554,9.045,10.933,15.7,10.933,9.839,0,14.411-6.46,15.8-9.939,1.192-2.982,1.192-5.566,1.192-11.529V805.882h17.1Z" fill="#ef4122"/>
      <path id="Path_50" data-name="Path 50" d="M579.467,873.666h-17.1V832.22l-18.188,21.866H541.7L523.51,832.22v41.446H506.416V805.882h15.007l21.468,25.742,21.767-25.742h14.809Z" fill="#ef4122"/>
      <path id="Path_51" data-name="Path 51" d="M127.762,805.882h-19.58L80.85,873.666H98.74l2.852-7.551h0l.037-.1,2.179-5.77h0l4.473-11.827h0l1.985-5.241.015-.04h0l7.939-20.958,7.92,19.008h0l7.964,19.058h.018l5.566,13.418h18.188Z" fill="#ef4122"/>
      <path id="Path_52" data-name="Path 52" d="M322.359,868.8c-1.789-3.876-4.671-10.237-6.56-14.114-1.49-3.478-4.87-10.337-9.74-12.722,2.883-1.391,11.629-5.366,11.629-16.7,0-8.05-5.268-13.616-8.846-16-5.466-3.379-11.629-3.379-17.791-3.379H265.012v12.324H291.1v0c2.408.032,8.995.509,8.995,7.751a7.051,7.051,0,0,1-3.678,6.559c-1.488.827-2.5.966-5.317,1.1v.09H265.012v39.954h17.094V846.035h2.485c4.771,0,8.15,0,12.722,8.548,1.391,2.684,7.255,16.1,8.746,19.083h18.585Z" fill="#ef4122"/>
    </g>
  </g>
</svg>
